<svg width="40" height="40" viewBox="0 0 40 40" fill="none" xmlns="http://www.w3.org/2000/svg">
<path fill-rule="evenodd" clip-rule="evenodd" d="M28.3335 12.5001L23.3335 12.5001L23.3335 9.16675L28.3335 9.16675L28.3335 12.5001Z" fill="#9B1E1C"/>
<path d="M33.7939 2.91699C34.6902 2.91704 35.417 3.64542 35.417 4.54395V35.4561C35.417 36.3546 34.6902 37.083 33.7939 37.083H6.20605C5.30984 37.083 4.58301 36.3546 4.58301 35.4561V4.54395C4.58301 3.64542 5.30984 2.91704 6.20605 2.91699H33.7939ZM10.417 28.75V31.25H13.7939V28.75H10.417ZM18.3115 28.75V31.25H21.6885V28.75H18.3115ZM26.2061 28.75V31.25H29.583V28.75H26.2061ZM10.417 24.583H13.7939V22.083H10.417V24.583ZM18.3115 24.583H21.6885V22.083H18.3115V24.583ZM26.2061 24.583H29.583V22.083H26.2061V24.583ZM7.8291 15.417H32.1709V6.1709H7.8291V15.417Z" fill="#9B1E1C"/>
</svg>
