<svg width="50" height="50" viewBox="0 0 50 50" fill="none" xmlns="http://www.w3.org/2000/svg">
<path fill-rule="evenodd" clip-rule="evenodd" d="M35.4165 15.6249L29.1665 15.6249L29.1665 11.4583L35.4165 11.4583L35.4165 15.6249Z" fill="#9B1E1C"/>
<path d="M42.2422 3.64551C43.3625 3.64551 44.2705 4.55649 44.2705 5.67969V44.3203C44.2705 45.4435 43.3625 46.3545 42.2422 46.3545H7.75781C6.6375 46.3545 5.72949 45.4435 5.72949 44.3203V5.67969C5.72949 4.55649 6.6375 3.64551 7.75781 3.64551H42.2422ZM13.0205 35.9375V39.0625H17.2422V35.9375H13.0205ZM22.8896 35.9375V39.0625H27.1104V35.9375H22.8896ZM32.7578 35.9375V39.0625H36.9795V35.9375H32.7578ZM13.0205 30.7295H17.2422V27.6045H13.0205V30.7295ZM22.8896 30.7295H27.1104V27.6045H22.8896V30.7295ZM32.7578 30.7295H36.9795V27.6045H32.7578V30.7295ZM9.78613 19.2705H40.2139V7.71289H9.78613V19.2705Z" fill="#9B1E1C"/>
</svg>
