<svg width="16" height="16" viewBox="0 0 16 16" fill="none" xmlns="http://www.w3.org/2000/svg">
<path d="M2.51858 7.96149C1.88656 6.85945 1.58139 5.95957 1.39739 5.04739C1.12524 3.6983 1.74804 2.38046 2.77975 1.53957C3.21579 1.18417 3.71565 1.3056 3.9735 1.76818L4.55562 2.81252C5.01702 3.6403 5.24772 4.05418 5.20196 4.49298C5.15621 4.93178 4.84507 5.28916 4.22281 6.00392L2.51858 7.96149ZM2.51858 7.96149C3.79783 10.1921 5.80539 12.2008 8.03859 13.4815M8.03859 13.4815C9.14062 14.1135 10.0405 14.4187 10.9527 14.6027C12.3018 14.8748 13.6196 14.252 14.4605 13.2203C14.8159 12.7843 14.6945 12.2844 14.2319 12.0266L13.1876 11.4445C12.3598 10.9831 11.9459 10.7524 11.5071 10.7981C11.0683 10.8439 10.7109 11.155 9.99616 11.7773L8.03859 13.4815Z" stroke="#9B1E1C" stroke-width="1.2" stroke-linejoin="round"/>
</svg>
