<svg width="97" height="9" viewBox="0 0 97 9" fill="none" xmlns="http://www.w3.org/2000/svg">
<path d="M95.1738 0.161102H97.0003V8.21913H95.1738V0.161102Z" fill="#101010"/>
<path d="M92.389 7.0158L91.7551 7.11249V0.161102H93.5278V8.21913H91.2179L86.0607 1.26774L86.6839 1.17104V8.21913H84.9219V0.161102H87.2856L92.389 7.0158Z" fill="#101010"/>
<path d="M76.2777 6.52157V5.0389H81.8646V6.52157H76.2777ZM80.2852 0.161102L84.0564 8.21913H82.1117L78.8133 0.902441H79.415L76.1165 8.21913H74.1719L77.943 0.161102H80.2852Z" fill="#101010"/>
<path d="M65.8164 8.21913V0.161102H67.6321V6.73645L67.1164 6.37116L72.1017 0.161102H74.0463L67.4602 8.21913H65.8164ZM69.6628 4.27607L70.9735 3.10497L74.1645 8.21913H72.0802L69.6628 4.27607Z" fill="#101010"/>
<path d="M59.7808 0.977649H61.5966V8.21913H59.7808V0.977649ZM56.5684 0.161102H64.7983V1.77271H56.5684V0.161102Z" fill="#101010"/>
<path d="M47.1701 3.73887H50.2752C50.6834 3.73887 51.0058 3.64575 51.2421 3.45952C51.4857 3.26613 51.6074 3.00111 51.6074 2.66446C51.6074 2.32782 51.4857 2.06638 51.2421 1.88015C51.0058 1.69392 50.6834 1.6008 50.2752 1.6008H46.9015L47.7288 0.666072V8.21913H45.9023V0.161102H50.49C51.0774 0.161102 51.5931 0.268543 52.0372 0.483424C52.4813 0.691142 52.8287 0.98123 53.0794 1.35369C53.33 1.72615 53.4554 2.16307 53.4554 2.66446C53.4554 3.15869 53.33 3.59203 53.0794 3.96449C52.8287 4.33695 52.4813 4.63062 52.0372 4.8455C51.5931 5.05322 51.0774 5.15708 50.49 5.15708H47.1701V3.73887ZM48.5669 4.44797H50.6512L53.6918 8.21913H51.5537L48.5669 4.44797Z" fill="#101010"/>
<path d="M44.1809 3.49175V4.88848H38.4113V3.49175H44.1809ZM39.6361 4.19012L39.0989 7.60672L38.3039 6.70422H44.5139V8.21913H37.2617L37.8849 4.19012L37.2617 0.161102H44.4602V1.67601H38.3039L39.0989 0.773513L39.6361 4.19012Z" fill="#101010"/>
<path d="M31.4839 0.977649H33.2997V8.21913H31.4839V0.977649ZM28.2715 0.161102H36.5014V1.77271H28.2715V0.161102Z" fill="#101010"/>
<path d="M26.1312 7.0158L25.4973 7.11249V0.161102H27.27V8.21913H24.9601L19.8029 1.26774L20.4261 1.17104V8.21913H18.6641V0.161102H21.0277L26.1312 7.0158Z" fill="#101010"/>
<path d="M16.9426 3.49175V4.88848H11.173V3.49175H16.9426ZM12.3979 4.19012L11.8607 7.60672L11.0656 6.70422H17.2757V8.21913H10.0234L10.6466 4.19012L10.0234 0.161102H17.2219V1.67601H11.0656L11.8607 0.773513L12.3979 4.19012Z" fill="#101010"/>
<path d="M9.11094 4.94226C9.03215 5.62271 8.7922 6.22438 8.39109 6.74725C7.99714 7.26297 7.47426 7.66408 6.82246 7.95059C6.17782 8.23709 5.44006 8.38035 4.60919 8.38035C3.69236 8.38035 2.88656 8.20486 2.19178 7.85389C1.50416 7.50292 0.966963 7.01586 0.580178 6.3927C0.193393 5.76238 0 5.02821 0 4.19017C0 3.35214 0.193393 2.62154 0.580178 1.99839C0.966963 1.36807 1.50416 0.87743 2.19178 0.526458C2.88656 0.175486 3.69236 0 4.60919 0C5.44006 0 6.17782 0.143254 6.82246 0.429762C7.47426 0.716269 7.99714 1.11738 8.39109 1.63309C8.7922 2.14881 9.03215 2.75047 9.11094 3.43809H7.27371C7.20208 3.05847 7.04808 2.73257 6.81171 2.46038C6.57535 2.18104 6.27093 1.96616 5.89847 1.81574C5.52601 1.66533 5.09267 1.59012 4.59844 1.59012C4.03259 1.59012 3.54195 1.69756 3.12651 1.91244C2.71824 2.12016 2.40308 2.42099 2.18104 2.81494C1.95899 3.20172 1.84797 3.66014 1.84797 4.19017C1.84797 4.72021 1.95899 5.18221 2.18104 5.57616C2.40308 5.96294 2.71824 6.26377 3.12651 6.47865C3.54195 6.68637 4.03259 6.79023 4.59844 6.79023C5.09267 6.79023 5.52601 6.7186 5.89847 6.57535C6.27093 6.42493 6.57535 6.21363 6.81171 5.94145C7.04808 5.66211 7.20208 5.32904 7.27371 4.94226H9.11094Z" fill="#101010"/>
</svg>
