<svg width="115" height="10" viewBox="0 0 115 10" fill="none" xmlns="http://www.w3.org/2000/svg">
<path d="M111.969 0.189575H114.118V9.66961H111.969V0.189575Z" fill="#101010"/>
<path d="M108.693 8.25392L107.947 8.36768V0.189575H110.033V9.66961H107.315L101.248 1.4915L101.981 1.37774V9.66961H99.9082V0.189575H102.689L108.693 8.25392Z" fill="#101010"/>
<path d="M89.7392 7.67248V5.92815H96.312V7.67248H89.7392ZM94.4539 0.189575L98.8905 9.66961H96.6027L92.7222 1.06174H93.4301L89.5496 9.66961H87.2617L91.6984 0.189575H94.4539Z" fill="#101010"/>
<path d="M77.4316 9.66961V0.189575H79.5678V7.92528L78.9611 7.49552L84.8261 0.189575H87.1139L79.3656 9.66961H77.4316ZM81.9568 5.03071L83.4989 3.65295L87.2529 9.66961H84.8008L81.9568 5.03071Z" fill="#101010"/>
<path d="M70.3301 1.15022H72.4663V9.66961H70.3301V1.15022ZM66.5508 0.189575H76.233V2.08558H66.5508V0.189575Z" fill="#101010"/>
<path d="M55.4954 4.39871H59.1484C59.6287 4.39871 60.0079 4.28916 60.286 4.07007C60.5725 3.84255 60.7158 3.53076 60.7158 3.13471C60.7158 2.73865 60.5725 2.43108 60.286 2.21198C60.0079 1.99289 59.6287 1.88334 59.1484 1.88334H55.1794L56.1527 0.783658V9.66961H54.0039V0.189575H59.4012C60.0922 0.189575 60.6989 0.315976 61.2214 0.568777C61.7438 0.813151 62.1525 1.15443 62.4474 1.59262C62.7424 2.03081 62.8899 2.54484 62.8899 3.13471C62.8899 3.71615 62.7424 4.22596 62.4474 4.66415C62.1525 5.10234 61.7438 5.44783 61.2214 5.70063C60.6989 5.94501 60.0922 6.06719 59.4012 6.06719H55.4954V4.39871ZM57.1386 5.23295H59.5908L63.1679 9.66961H60.6526L57.1386 5.23295Z" fill="#101010"/>
<path d="M51.9781 4.10799V5.75119H45.1904V4.10799H51.9781ZM46.6313 4.92959L45.9993 8.94913L45.064 7.88736H52.3699V9.66961H43.8379L44.571 4.92959L43.8379 0.189575H52.3067V1.97182H45.064L45.9993 0.910058L46.6313 4.92959Z" fill="#101010"/>
<path d="M37.0411 1.15022H39.1773V9.66961H37.0411V1.15022ZM33.2617 0.189575H42.944V2.08558H33.2617V0.189575Z" fill="#101010"/>
<path d="M30.7419 8.25392L29.9961 8.36768V0.189575H32.0817V9.66961H29.3641L23.2969 1.4915L24.03 1.37774V9.66961H21.957V0.189575H24.7378L30.7419 8.25392Z" fill="#101010"/>
<path d="M19.9332 4.10799V5.75119H13.1455V4.10799H19.9332ZM14.5864 4.92959L13.9544 8.94913L13.0191 7.88736H20.325V9.66961H11.793L12.5261 4.92959L11.793 0.189575H20.2618V1.97182H13.0191L13.9544 0.910058L14.5864 4.92959Z" fill="#101010"/>
<path d="M10.7188 5.81442C10.6261 6.61496 10.3438 7.3228 9.87187 7.93795C9.4084 8.54467 8.79325 9.01656 8.02642 9.35363C7.26802 9.6907 6.40007 9.85923 5.42257 9.85923C4.34396 9.85923 3.39596 9.65278 2.57857 9.23987C1.7696 8.82696 1.1376 8.25395 0.682562 7.52082C0.227521 6.77928 0 5.91554 0 4.92962C0 3.94369 0.227521 3.08417 0.682562 2.35105C1.1376 1.6095 1.7696 1.03227 2.57857 0.619362C3.39596 0.206454 4.34396 0 5.42257 0C6.40007 0 7.26802 0.168534 8.02642 0.505602C8.79325 0.842669 9.4084 1.31456 9.87187 1.92129C10.3438 2.52801 10.6261 3.23585 10.7188 4.04481H8.5573C8.47304 3.5982 8.29186 3.21478 8.01378 2.89457C7.7357 2.56593 7.37757 2.31313 6.93938 2.13617C6.50119 1.95921 5.99138 1.87073 5.40993 1.87073C4.74423 1.87073 4.167 1.99713 3.67825 2.24993C3.19793 2.4943 2.82715 2.84822 2.56593 3.31169C2.3047 3.76673 2.17409 4.30604 2.17409 4.92962C2.17409 5.55319 2.3047 6.09671 2.56593 6.56018C2.82715 7.01522 3.19793 7.36914 3.67825 7.62195C4.167 7.86632 4.74423 7.98851 5.40993 7.98851C5.99138 7.98851 6.50119 7.90424 6.93938 7.73571C7.37757 7.55875 7.7357 7.31016 8.01378 6.98994C8.29186 6.6613 8.47304 6.26946 8.5573 5.81442H10.7188Z" fill="#101010"/>
</svg>
