<svg width="105" height="10" viewBox="0 0 105 10" fill="none" xmlns="http://www.w3.org/2000/svg">
<path d="M102.815 0.173828H104.789V8.87884H102.815V0.173828Z" fill="#101010"/>
<path d="M99.8068 7.57889L99.122 7.68335V0.173828H101.037V8.87884H98.5417L92.9705 1.36932L93.6437 1.26486V8.87884H91.7402V0.173828H94.2937L99.8068 7.57889Z" fill="#101010"/>
<path d="M82.4009 7.04499V5.44326H88.4363V7.04499H82.4009ZM86.7301 0.173828L90.804 8.87884H88.7032L85.14 0.974689H85.79L82.2268 8.87884H80.126L84.1999 0.173828H86.7301Z" fill="#101010"/>
<path d="M71.1006 8.87884V0.173828H73.0621V7.27712L72.505 6.88249L77.8904 0.173828H79.9912L72.8764 8.87884H71.1006ZM75.2557 4.61919L76.6717 3.35406L80.1189 8.87884H77.8672L75.2557 4.61919Z" fill="#101010"/>
<path d="M64.5788 1.05594H66.5403V8.87884H64.5788V1.05594ZM61.1084 0.173828H69.999V1.91483H61.1084V0.173828Z" fill="#101010"/>
<path d="M50.9575 4.03885H54.3118C54.7528 4.03885 55.101 3.93826 55.3563 3.73708C55.6194 3.52816 55.751 3.24186 55.751 2.87819C55.751 2.51451 55.6194 2.23208 55.3563 2.0309C55.101 1.82972 54.7528 1.72912 54.3118 1.72912H50.6673L51.561 0.719343V8.87884H49.5879V0.173828H54.5439C55.1784 0.173828 55.7355 0.289895 56.2152 0.522029C56.695 0.746425 57.0702 1.05981 57.3411 1.46217C57.6119 1.86454 57.7473 2.33654 57.7473 2.87819C57.7473 3.41209 57.6119 3.88023 57.3411 4.28259C57.0702 4.68496 56.695 5.00221 56.2152 5.23434C55.7355 5.45874 55.1784 5.57094 54.5439 5.57094H50.9575V4.03885ZM52.4663 4.8049H54.718L58.0026 8.87884H55.6929L52.4663 4.8049Z" fill="#101010"/>
<path d="M47.7266 3.7719V5.28077H41.4939V3.7719H47.7266ZM42.817 4.52634L42.2367 8.21726L41.3778 7.2423H48.0864V8.87884H40.252L40.9251 4.52634L40.252 0.173828H48.0283V1.81037H41.3778L42.2367 0.83541L42.817 4.52634Z" fill="#101010"/>
<path d="M34.0104 1.05594H35.9719V8.87884H34.0104V1.05594ZM30.54 0.173828H39.4307V1.91483H30.54V0.173828Z" fill="#101010"/>
<path d="M28.2296 7.57889L27.5449 7.68335V0.173828H29.4599V8.87884H26.9645L21.3934 1.36932L22.0666 1.26486V8.87884H20.1631V0.173828H22.7165L28.2296 7.57889Z" fill="#101010"/>
<path d="M18.3037 3.7719V5.28077H12.071V3.7719H18.3037ZM13.3942 4.52634L12.8138 8.21726L11.9549 7.2423H18.6635V8.87884H10.8291L11.5023 4.52634L10.8291 0.173828H18.6055V1.81037H11.9549L12.8138 0.83541L13.3942 4.52634Z" fill="#101010"/>
<path d="M9.84236 5.33907C9.75724 6.07416 9.49803 6.72414 9.06472 7.289C8.63914 7.84612 8.07429 8.27943 7.37016 8.58895C6.67377 8.89846 5.87678 9.05321 4.97921 9.05321C3.98879 9.05321 3.11829 8.86364 2.36774 8.48449C1.62492 8.10533 1.04459 7.57916 0.626754 6.90598C0.208918 6.22505 0 5.43193 0 4.52661C0 3.62129 0.208918 2.83203 0.626754 2.15884C1.04459 1.47792 1.62492 0.947879 2.36774 0.568728C3.11829 0.189576 3.98879 0 4.97921 0C5.87678 0 6.67377 0.154756 7.37016 0.464268C8.07429 0.773779 8.63914 1.20709 9.06472 1.76422C9.49803 2.32134 9.75724 2.97131 9.84236 3.71414H7.85764C7.78026 3.30404 7.6139 2.95197 7.35855 2.65793C7.10321 2.35616 6.77436 2.12402 6.372 1.96153C5.96964 1.79904 5.50151 1.71779 4.9676 1.71779C4.35633 1.71779 3.82629 1.83386 3.37751 2.06599C2.93646 2.29039 2.596 2.61537 2.35613 3.04095C2.11626 3.45879 1.99633 3.95401 1.99633 4.52661C1.99633 5.0992 2.11626 5.59829 2.35613 6.02387C2.596 6.44171 2.93646 6.7667 3.37751 6.99883C3.82629 7.22323 4.35633 7.33542 4.9676 7.33542C5.50151 7.33542 5.96964 7.25805 6.372 7.10329C6.77436 6.9408 7.10321 6.71253 7.35855 6.4185C7.6139 6.11672 7.78026 5.75692 7.85764 5.33907H9.84236Z" fill="#101010"/>
</svg>
