<svg width="120" height="11" viewBox="0 0 120 11" fill="none" xmlns="http://www.w3.org/2000/svg">
<path d="M117.568 0.198975H119.825V10.153H117.568V0.198975Z" fill="#101010"/>
<path d="M114.128 8.66655L113.345 8.786V0.198975H115.535V10.153H112.682L106.311 1.566L107.081 1.44655V10.153H104.904V0.198975H107.824L114.128 8.66655Z" fill="#101010"/>
<path d="M94.2244 8.05604V6.22449H101.126V8.05604H94.2244ZM99.1748 0.198975L103.833 10.153H101.431L97.3566 1.11475H98.0998L94.0253 10.153H91.623L96.2815 0.198975H99.1748Z" fill="#101010"/>
<path d="M81.3027 10.153V0.198975H83.5457V8.32148L82.9086 7.87023L89.0669 0.198975H91.4691L83.3334 10.153H81.3027ZM86.0541 5.28218L87.6733 3.83552L91.6151 10.153H89.0403L86.0541 5.28218Z" fill="#101010"/>
<path d="M73.8453 1.20765H76.0883V10.153H73.8453V1.20765ZM69.877 0.198975H80.0433V2.18978H69.877V0.198975Z" fill="#101010"/>
<path d="M58.2692 4.61857H62.1048C62.6092 4.61857 63.0073 4.50355 63.2993 4.2735C63.6001 4.0346 63.7506 3.70722 63.7506 3.29137C63.7506 2.87551 63.6001 2.55255 63.2993 2.32251C63.0073 2.09246 62.6092 1.97743 62.1048 1.97743H57.9374L58.9594 0.822762V10.153H56.7031V0.198975H62.3703C63.0958 0.198975 63.7329 0.331695 64.2814 0.597137C64.83 0.85373 65.2591 1.21208 65.5688 1.67217C65.8785 2.13227 66.0334 2.672 66.0334 3.29137C66.0334 3.90188 65.8785 4.43719 65.5688 4.89729C65.2591 5.35738 64.83 5.72015 64.2814 5.9856C63.7329 6.24219 63.0958 6.37048 62.3703 6.37048H58.2692V4.61857ZM59.9946 5.49453H62.5694L66.3253 10.153H63.6842L59.9946 5.49453Z" fill="#101010"/>
<path d="M54.5745 4.31331V6.03868H47.4475V4.31331H54.5745ZM48.9605 5.176L48.2969 9.39652L47.3147 8.28166H54.986V10.153H46.0273L46.7971 5.176L46.0273 0.198975H54.9196V2.07034H47.3147L48.2969 0.955483L48.9605 5.176Z" fill="#101010"/>
<path d="M38.8902 1.20765H41.1332V10.153H38.8902V1.20765ZM34.9219 0.198975H45.0882V2.18978H34.9219V0.198975Z" fill="#101010"/>
<path d="M32.2807 8.66655L31.4976 8.786V0.198975H33.6875V10.153H30.834L24.4635 1.566L25.2333 1.44655V10.153H23.0566V0.198975H25.9765L32.2807 8.66655Z" fill="#101010"/>
<path d="M20.93 4.31331V6.03868H13.8029V4.31331H20.93ZM15.3159 5.176L14.6523 9.39652L13.6702 8.28166H21.3414V10.153H12.3828L13.1526 5.176L12.3828 0.198975H21.2751V2.07034H13.6702L14.6523 0.955483L15.3159 5.176Z" fill="#101010"/>
<path d="M11.2547 6.10515C11.1573 6.94571 10.8609 7.68895 10.3654 8.33486C9.8788 8.97192 9.2329 9.46741 8.42773 9.82133C7.63141 10.1753 6.72006 10.3522 5.69369 10.3522C4.56115 10.3522 3.56575 10.1354 2.70749 9.70188C1.85808 9.26833 1.19448 8.66666 0.716689 7.89688C0.238896 7.11825 0 6.21133 0 5.17611C0 4.14088 0.238896 3.23838 0.716689 2.4686C1.19448 1.68998 1.85808 1.08389 2.70749 0.650331C3.56575 0.216777 4.56115 0 5.69369 0C6.72006 0 7.63141 0.176961 8.42773 0.530883C9.2329 0.884804 9.8788 1.38029 10.3654 2.01735C10.8609 2.65441 11.1573 3.39765 11.2547 4.24706H8.98515C8.89667 3.77811 8.70644 3.37553 8.41446 3.0393C8.12247 2.69423 7.74643 2.42879 7.28634 2.24298C6.82624 2.05717 6.29094 1.96427 5.68042 1.96427C4.98143 1.96427 4.37534 2.09699 3.86216 2.36243C3.35782 2.61902 2.96851 2.99064 2.69422 3.47728C2.41993 3.95508 2.28279 4.52135 2.28279 5.17611C2.28279 5.83086 2.41993 6.40156 2.69422 6.8882C2.96851 7.366 3.35782 7.73761 3.86216 8.00306C4.37534 8.25965 4.98143 8.38795 5.68042 8.38795C6.29094 8.38795 6.82624 8.29947 7.28634 8.1225C7.74643 7.9367 8.12247 7.67568 8.41446 7.33945C8.70644 6.99438 8.89667 6.58294 8.98515 6.10515H11.2547Z" fill="#101010"/>
</svg>
