<svg width="16" height="16" viewBox="0 0 16 16" fill="none" xmlns="http://www.w3.org/2000/svg">
<path d="M6.25781 4.44824C6.32485 4.44826 6.37582 4.46878 6.42773 4.52051L9.72461 7.81738C9.76043 7.85329 9.77738 7.8817 9.78516 7.90039C9.79498 7.92407 9.80078 7.95098 9.80078 7.9834C9.80074 8.0158 9.79502 8.04273 9.78516 8.06641C9.77734 8.08516 9.76061 8.1134 9.72461 8.14941L6.41113 11.4619C6.35943 11.5135 6.31537 11.5283 6.26172 11.5264C6.19888 11.5241 6.14428 11.5027 6.08691 11.4453C6.03492 11.3933 6.01465 11.3416 6.01465 11.2744C6.01471 11.2074 6.03513 11.1564 6.08691 11.1045L9.20801 7.9834L8.97266 7.74707L6.07031 4.84473C6.01879 4.79306 6.00488 4.74895 6.00684 4.69531C6.00913 4.63247 6.02954 4.57788 6.08691 4.52051C6.13899 4.46845 6.19056 4.44824 6.25781 4.44824Z" fill="#101010" stroke="#101010" stroke-width="0.666667"/>
</svg>
