<svg width="18" height="18" viewBox="0 0 18 18" fill="none" xmlns="http://www.w3.org/2000/svg">
<path d="M8.99848 15.9996C5.13331 15.9996 2 12.8657 2 8.99979C2 5.13391 5.13334 2 8.9985 2C12.1322 2 14.7553 4.05996 15.6471 6.89985H13.8974" stroke="#C2C2C2" stroke-width="1.5" stroke-linecap="round" stroke-linejoin="round"/>
<path d="M9 6.20264V9.00255L10.3997 10.4025" stroke="#C2C2C2" stroke-width="1.5" stroke-linecap="round" stroke-linejoin="round"/>
<path d="M15.9691 9.70016C15.9899 9.46977 16.0005 9.23628 16.0005 9.00018M11.1016 16C11.3406 15.9213 11.5742 15.8295 11.8014 15.7254M15.1541 12.5001C15.2891 12.24 15.4095 11.9704 15.5141 11.6925M13.3358 14.7605C13.5769 14.5609 13.8052 14.3451 14.0191 14.1146" stroke="#C2C2C2" stroke-width="1.5" stroke-linecap="round" stroke-linejoin="round"/>
</svg>
