<svg width="24" height="24" viewBox="0 0 24 24" fill="none" xmlns="http://www.w3.org/2000/svg">
<path fill-rule="evenodd" clip-rule="evenodd" d="M8.58183 1.85559C8.73941 1.48791 9.10095 1.24951 9.50098 1.24951H14.501C14.901 1.24951 15.2625 1.48791 15.4201 1.85559L16.6604 4.74951H22.001V6.74951H2.00098V4.74951H7.34158L8.58183 1.85559ZM9.51752 4.74951H14.4844L13.8416 3.24951H10.1604L9.51752 4.74951Z" fill="#101010"/>
<path d="M19.25 22.0449C19.226 22.4407 18.8984 22.7498 18.502 22.75H5.50195C5.10536 22.75 4.77692 22.4408 4.75293 22.0449L3.75293 5.54492H20.25L19.25 22.0449ZM8.50195 11V17H10.502V11H8.50195ZM13.502 11V17H15.502V11H13.502Z" fill="#101010"/>
</svg>
