<svg width="24" height="24" viewBox="0 0 24 24" fill="none" xmlns="http://www.w3.org/2000/svg">
<path fill-rule="evenodd" clip-rule="evenodd" d="M8.58134 1.85559C8.73892 1.48791 9.10046 1.24951 9.50049 1.24951H14.5005C14.9005 1.24951 15.2621 1.48791 15.4196 1.85559L16.6599 4.74951H22.0005V6.74951H2.00049V4.74951H7.34109L8.58134 1.85559ZM9.51703 4.74951H14.4839L13.8411 3.24951H10.1599L9.51703 4.74951Z" fill="#9B1E1C"/>
<path d="M19.2495 22.0449C19.2255 22.4407 18.8979 22.7498 18.5015 22.75H5.50146C5.10487 22.75 4.77643 22.4408 4.75244 22.0449L3.75244 5.54492H20.2495L19.2495 22.0449ZM8.50146 11V17H10.5015V11H8.50146ZM13.5015 11V17H15.5015V11H13.5015Z" fill="#9B1E1C"/>
</svg>
