<svg width="18" height="17" viewBox="0 0 18 17" fill="none" xmlns="http://www.w3.org/2000/svg">
<path d="M11.264 14.5546L11.264 14.5546L9.03708 12.0227C7.93464 10.7693 7.80409 10.2184 7.87662 10.0997L8.71243 9.42655L12.1001 6.77681C12.3732 6.56315 12.4215 6.16851 12.2078 5.89536C11.9941 5.62221 11.5995 5.57397 11.3264 5.78763L7.93515 8.44008L6.91534 9.27248C6.67727 9.52799 6.52544 9.96494 6.69103 10.5863C6.84556 11.1661 7.27901 11.9326 8.20194 12.9847L7.86106 13.6569C7.64092 13.9629 7.43652 14.247 7.2484 14.4418C7.06148 14.6353 6.72184 14.9197 6.24878 14.8256C5.78195 14.7327 5.57246 14.3468 5.46874 14.0991C5.3634 13.8475 5.27418 13.5064 5.17738 13.1363L4.75751 11.5318C4.5243 10.6406 4.44377 10.3844 4.29201 10.1958C4.27286 10.172 4.25291 10.1491 4.23222 10.1269C4.072 9.95535 3.84573 9.84978 3.01692 9.51755L2.97152 9.49936C2.15473 9.17197 1.48193 8.90231 1.01134 8.63735C0.555445 8.38066 0.0631276 8.00748 0.00649077 7.37783C-0.00231167 7.27998 -0.00216077 7.18149 0.00694173 7.08366C0.0655155 6.45413 0.559055 6.08253 1.01576 5.82735C1.48717 5.56396 2.16081 5.29652 2.9786 4.97186L13.0119 0.988354C14.0382 0.580854 14.8774 0.247644 15.5368 0.0957299C16.2091 -0.0591519 16.9036 -0.0755487 17.4478 0.427824C17.9812 0.921267 18.0451 1.6164 17.9786 2.31698C17.9126 3.01207 17.6958 3.91602 17.4283 5.0311L15.4025 13.4762C15.232 14.187 15.0881 14.787 14.9155 15.2224C14.7411 15.6623 14.4615 16.1346 13.8965 16.284C13.3246 16.4352 12.8521 16.1533 12.4929 15.8493C12.1401 15.5508 11.7377 15.0933 11.264 14.5546Z" fill="#9B1E1C"/>
</svg>
