<svg width="25" height="25" viewBox="0 0 25 25" fill="none" xmlns="http://www.w3.org/2000/svg">
<path d="M6.48971 21.8103C8.55519 21.6018 9.99694 18.2847 11.694 17.2487C12.3626 16.8405 12.9553 17.255 13.374 17.8001L17.4256 23.0738C18.1315 23.9926 18.6286 24.266 19.693 23.7211C21.3295 22.8833 22.8845 21.3261 23.721 19.6928C24.2661 18.6286 23.9927 18.1314 23.0739 17.4256L17.8002 13.374C17.2551 12.9552 16.8406 12.3626 17.2488 11.694C18.2848 9.9969 21.6019 8.55515 21.8104 6.48968C22.1771 2.72486 4.55527 -0.703372 1.92578 1.92577C-0.70338 4.55525 2.72487 22.177 6.48971 21.8103Z" fill="white" stroke="black" stroke-width="2" stroke-linecap="round" stroke-linejoin="round"/>
</svg>
