<svg width="18" height="18" viewBox="0 0 18 18" fill="none" xmlns="http://www.w3.org/2000/svg">
<path d="M8.95898 17.917C13.9064 17.9169 17.917 13.9055 17.917 8.95801C17.9167 4.01076 13.9063 0.000123978 8.95898 0C4.0116 0 0.000263868 4.01068 0 8.95801C0 10.1921 0.250589 11.3699 0.703125 12.4414C0.82181 12.7224 0.901633 12.9127 0.955078 13.0586C1.00953 13.2073 1.01759 13.2615 1.01855 13.2754C1.02386 13.3536 1.00401 13.4608 0.869141 13.9648L0.0214844 17.1299C-0.0361936 17.3454 0.0258558 17.5756 0.183594 17.7334C0.341428 17.8912 0.571484 17.9532 0.787109 17.8955L3.95215 17.0488C4.45717 16.9137 4.56432 16.894 4.64258 16.8994C4.65694 16.9005 4.7116 16.9078 4.85938 16.9619C5.00527 17.0154 5.19476 17.0962 5.47559 17.2148C6.54707 17.6674 7.7249 17.917 8.95898 17.917ZM12.3057 13.7129C11.917 13.7943 11.621 13.7271 11.3047 13.6553L11.2607 13.6455C9.65722 13.2834 8.08452 12.4361 6.78223 11.1338C5.48021 9.8316 4.63357 8.25955 4.27148 6.65625L4.26172 6.6123C4.18994 6.29599 4.12274 5.99995 4.2041 5.61133C4.26348 5.32791 4.41395 5.06451 4.57715 4.86035C4.74034 4.6562 4.96417 4.45141 5.22754 4.33105C5.59018 4.16541 5.95965 4.16632 6.35938 4.16699H6.43652C6.62021 4.167 6.92919 4.17295 7.21484 4.29199C7.55627 4.43429 7.83812 4.72706 7.91016 5.18652V5.19141L8.1123 6.5C8.13457 6.65313 8.15178 6.7804 8.16309 6.87988C8.17238 6.96167 8.18422 7.07481 8.17871 7.16895C8.15477 7.57664 7.98951 7.90112 7.81738 8.15234C7.70778 8.31228 7.56075 8.48638 7.44531 8.62305C7.40003 8.67666 7.35961 8.72457 7.32813 8.76367C7.14913 8.98598 7.05945 9.09708 7.0332 9.23242C7.01885 9.3066 7.02095 9.39833 7.03906 9.47168C7.07219 9.60538 7.15892 9.70255 7.33203 9.89648C7.43927 10.0166 7.55125 10.1343 7.66699 10.25C7.78274 10.3657 7.90036 10.4777 8.02051 10.585C8.21448 10.7581 8.31157 10.8448 8.44531 10.8779C8.51866 10.896 8.61039 10.8981 8.68457 10.8838C8.81989 10.8575 8.93104 10.7678 9.15332 10.5889C9.19242 10.5574 9.24034 10.517 9.29395 10.4717C9.43062 10.3562 9.60471 10.2092 9.76465 10.0996C10.0159 9.92748 10.3403 9.76221 10.748 9.73828C10.8422 9.73277 10.9553 9.74462 11.0371 9.75391C11.1366 9.76521 11.2639 9.78243 11.417 9.80469C11.7232 9.8492 12.1561 9.91661 12.7256 10.0059L12.7305 10.0068C13.1899 10.0789 13.4827 10.3607 13.625 10.7021C13.744 10.9878 13.75 11.2968 13.75 11.4805V11.5576C13.7507 11.9573 13.7516 12.3268 13.5859 12.6895C13.4656 12.9528 13.2608 13.1767 13.0566 13.3398C12.8525 13.503 12.5891 13.6535 12.3057 13.7129Z" fill="#101010"/>
</svg>
