<svg width="46" height="46" viewBox="0 0 46 46" fill="none" xmlns="http://www.w3.org/2000/svg">
<path d="M22.6143 45.2275C35.1032 45.2273 45.2275 35.1023 45.2275 22.6133C45.2274 10.1244 35.1031 0.000255585 22.6143 0C10.1252 0 0.00015669 10.1243 0 22.6133C0 25.7284 0.631124 28.7006 1.77344 31.4053C2.07311 32.1148 2.27522 32.5945 2.41016 32.9629C2.54776 33.3386 2.56691 33.4747 2.56934 33.5098C2.58298 33.7073 2.53341 33.9764 2.19238 35.251L0.0537109 43.2412C-0.0918774 43.7853 0.0637875 44.3662 0.461914 44.7646C0.86024 45.163 1.44116 45.3193 1.98535 45.1738L9.97656 43.0352C11.2514 42.6941 11.5202 42.6445 11.7178 42.6582C11.7529 42.6606 11.8891 42.6799 12.2646 42.8174C12.6331 42.9523 13.1128 43.1545 13.8223 43.4541C16.5269 44.5964 19.4992 45.2275 22.6143 45.2275ZM31.0615 34.6143C30.0805 34.8197 29.3336 34.6509 28.5352 34.4697L28.4248 34.4443C24.377 33.5303 20.4076 31.3939 17.1201 28.1064C13.8327 24.819 11.6963 20.8495 10.7822 16.8018L10.7568 16.6914C10.5756 15.8929 10.4059 15.146 10.6113 14.165C10.7612 13.4494 11.1407 12.784 11.5527 12.2686C11.9648 11.7531 12.5303 11.2364 13.1953 10.9326C14.1107 10.5145 15.0418 10.5159 16.0508 10.5176L16.2451 10.5186C16.7086 10.5186 17.4895 10.5325 18.2109 10.833C19.0729 11.1922 19.784 11.9328 19.9658 13.0928L19.9678 13.1045C20.1931 14.5424 20.3642 15.6352 20.4766 16.4082C20.5328 16.795 20.576 17.116 20.6045 17.3672C20.6279 17.5737 20.6575 17.8581 20.6436 18.0957C20.5833 19.1255 20.1662 19.9447 19.7314 20.5791C19.4548 20.9828 19.0843 21.4216 18.793 21.7666C18.6785 21.9021 18.5756 22.0233 18.4961 22.1221C18.0443 22.6832 17.8181 22.9639 17.752 23.3057C17.7157 23.4929 17.7219 23.7231 17.7676 23.9082C17.851 24.2462 18.0694 24.4914 18.5068 24.9814C18.7776 25.2848 19.0593 25.5828 19.3516 25.875C19.6437 26.1672 19.9418 26.449 20.2451 26.7197C20.735 27.157 20.9804 27.3755 21.3184 27.459C21.5035 27.5046 21.7337 27.5108 21.9209 27.4746C22.2626 27.4084 22.5433 27.1823 23.1045 26.7305C23.2033 26.6509 23.3245 26.548 23.46 26.4336C23.8049 26.1422 24.2438 25.7718 24.6475 25.4951C25.2819 25.0604 26.1011 24.6423 27.1309 24.582C27.3685 24.5681 27.6529 24.5976 27.8594 24.6211C28.1105 24.6496 28.4317 24.6938 28.8184 24.75C29.5913 24.8624 30.6837 25.0335 32.1211 25.2588H32.1221L32.1338 25.2607C33.2938 25.4425 34.0343 26.1527 34.3936 27.0146C34.6942 27.7361 34.708 28.5169 34.708 28.9805V29.1758C34.7097 30.1848 34.7111 31.1158 34.293 32.0312C33.9892 32.6961 33.4734 33.2619 32.958 33.6738C32.4426 34.0858 31.777 34.4644 31.0615 34.6143Z" fill="#101010"/>
</svg>
