<svg width="18" height="18" viewBox="0 0 18 18" fill="none" xmlns="http://www.w3.org/2000/svg">
<path d="M15.1875 15.7501C15.1136 15.7502 15.0404 15.7357 14.9722 15.7074C14.9039 15.6791 14.842 15.6376 14.7899 15.5852L2.41485 3.21019C2.31382 3.10384 2.25832 2.96223 2.2602 2.81555C2.26208 2.66887 2.32118 2.52873 2.4249 2.42501C2.52863 2.32128 2.66877 2.26218 2.81545 2.2603C2.96213 2.25842 3.10374 2.31392 3.21009 2.41495L15.5851 14.79C15.6637 14.8686 15.7172 14.9688 15.7389 15.0779C15.7606 15.187 15.7495 15.3 15.7069 15.4028C15.6644 15.5055 15.5923 15.5934 15.4998 15.6552C15.4074 15.717 15.2987 15.75 15.1875 15.7501ZM8.98802 13.5001C7.52938 13.5001 6.12278 13.0683 4.80723 12.2169C3.60946 11.4434 2.53122 10.3357 1.68887 9.01765V9.01484C2.38989 8.01042 3.1577 7.16105 3.98247 6.4762C3.98993 6.46997 3.99602 6.46225 4.00034 6.45354C4.00467 6.44483 4.00714 6.43532 4.0076 6.4256C4.00807 6.41589 4.00651 6.40618 4.00303 6.3971C3.99955 6.38802 3.99423 6.37976 3.98739 6.37284L3.28708 5.67359C3.27463 5.66104 3.25792 5.65364 3.24027 5.65286C3.22261 5.65207 3.20531 5.65797 3.1918 5.66937C2.31571 6.40765 1.50255 7.31327 0.763211 8.37358C0.63601 8.55615 0.565956 8.77242 0.56195 8.99489C0.557943 9.21736 0.620166 9.43601 0.740711 9.62304C1.66919 11.076 2.86415 12.2998 4.19587 13.1615C5.69528 14.1329 7.30895 14.6251 8.98802 14.6251C9.89433 14.6223 10.7942 14.4729 11.6529 14.1828C11.6642 14.179 11.6743 14.1723 11.6824 14.1634C11.6904 14.1546 11.696 14.1438 11.6988 14.1321C11.7015 14.1205 11.7012 14.1083 11.6979 14.0968C11.6946 14.0854 11.6884 14.0749 11.6799 14.0664L10.9213 13.3078C10.9038 13.2907 10.8822 13.2785 10.8586 13.2724C10.835 13.2662 10.8102 13.2663 10.7866 13.2726C10.1991 13.4239 9.59474 13.5003 8.98802 13.5001ZM17.2561 8.38835C16.3258 6.94976 15.1189 5.72773 13.7661 4.85409C12.2695 3.88659 10.6172 3.37507 8.98802 3.37507C8.09131 3.37666 7.20126 3.52914 6.35516 3.82613C6.34389 3.83005 6.3338 3.83678 6.32585 3.84568C6.31789 3.85457 6.31234 3.86535 6.3097 3.87699C6.30706 3.88864 6.30743 3.90076 6.31077 3.91221C6.31411 3.92367 6.32032 3.93409 6.3288 3.94249L7.08641 4.70011C7.10405 4.71745 7.12595 4.72983 7.1499 4.736C7.17385 4.74217 7.199 4.74192 7.22282 4.73527C7.79832 4.57959 8.39183 4.50051 8.98802 4.50007C10.4185 4.50007 11.8209 4.93706 13.1558 5.80085C14.3761 6.58835 15.467 7.69507 16.3114 9.00007C16.312 9.00087 16.3124 9.00186 16.3124 9.00288C16.3124 9.0039 16.312 9.00489 16.3114 9.00569C15.6984 9.97071 14.9378 10.8335 14.0572 11.5626C14.0497 11.5688 14.0435 11.5765 14.0391 11.5853C14.0347 11.594 14.0322 11.6035 14.0317 11.6133C14.0312 11.6231 14.0327 11.6328 14.0362 11.6419C14.0397 11.6511 14.0451 11.6594 14.0519 11.6663L14.7515 12.3656C14.7639 12.3781 14.7805 12.3855 14.7981 12.3863C14.8157 12.3872 14.8329 12.3814 14.8465 12.3701C15.7865 11.5786 16.6003 10.6482 17.2596 9.61108C17.3761 9.42833 17.4377 9.21595 17.4371 8.9992C17.4365 8.78245 17.3736 8.57044 17.2561 8.38835Z" fill="#888888"/>
<path d="M8.99998 5.625C8.74718 5.62486 8.49516 5.65317 8.24869 5.70938C8.23624 5.71196 8.22473 5.71787 8.21537 5.72648C8.20601 5.73509 8.19917 5.74608 8.19556 5.75827C8.19195 5.77046 8.19172 5.78341 8.19488 5.79572C8.19805 5.80804 8.20449 5.81926 8.21353 5.8282L12.1718 9.78539C12.1807 9.79443 12.1919 9.80087 12.2043 9.80404C12.2166 9.8072 12.2295 9.80697 12.2417 9.80336C12.2539 9.79976 12.2649 9.79291 12.2735 9.78356C12.2821 9.7742 12.288 9.76268 12.2906 9.75023C12.4033 9.25595 12.4032 8.74263 12.2903 8.2484C12.1774 7.75416 11.9546 7.29171 11.6385 6.89539C11.3223 6.49906 10.921 6.17905 10.4642 5.95912C10.0074 5.73919 9.50694 5.62499 8.99998 5.625ZM5.82818 8.21461C5.81924 8.20557 5.80801 8.19913 5.7957 8.19596C5.78338 8.1928 5.77044 8.19303 5.75825 8.19664C5.74606 8.20024 5.73507 8.20709 5.72646 8.21645C5.71785 8.2258 5.71194 8.23732 5.70935 8.24977C5.58186 8.80676 5.59787 9.38701 5.75588 9.93613C5.9139 10.4853 6.20874 10.9853 6.61278 11.3893C7.01682 11.7933 7.51684 12.0882 8.06596 12.2462C8.61508 12.4042 9.19532 12.4202 9.75232 12.2927C9.76477 12.2901 9.77629 12.2842 9.78564 12.2756C9.795 12.267 9.80184 12.256 9.80545 12.2438C9.80906 12.2316 9.80929 12.2187 9.80613 12.2064C9.80296 12.1941 9.79652 12.1828 9.78748 12.1739L5.82818 8.21461Z" fill="#888888"/>
</svg>
