<svg width="20" height="20" viewBox="0 0 20 20" fill="none" xmlns="http://www.w3.org/2000/svg">
<path fill-rule="evenodd" clip-rule="evenodd" d="M6.25101 5C6.25101 2.92893 7.92994 1.25 10.001 1.25C12.0721 1.25 13.751 2.92893 13.751 5C13.751 7.07107 12.0721 8.75 10.001 8.75C7.92994 8.75 6.25101 7.07107 6.25101 5Z" fill="#101010"/>
<path fill-rule="evenodd" clip-rule="evenodd" d="M3.12705 16.7544C3.1915 13.013 6.24433 10 10.001 10C13.7578 10 16.8107 13.0131 16.875 16.7547C16.8792 17.0028 16.7363 17.23 16.5107 17.3335C14.5283 18.2432 12.3231 18.75 10.0013 18.75C7.67922 18.75 5.47387 18.2431 3.49128 17.3332C3.26572 17.2297 3.12277 17.0026 3.12705 16.7544Z" fill="#101010"/>
</svg>
