<svg width="16" height="16" viewBox="0 0 16 16" fill="none" xmlns="http://www.w3.org/2000/svg">
<path d="M10.3332 7.33333C10.3332 8.622 9.2885 9.66667 7.99984 9.66667C6.71117 9.66667 5.6665 8.622 5.6665 7.33333C5.6665 6.04467 6.71117 5 7.99984 5C9.2885 5 10.3332 6.04467 10.3332 7.33333Z" stroke="#9B1E1C" stroke-width="1.2"/>
<path d="M8 1.33325C11.247 1.33325 14 4.0219 14 7.28376C14 10.5976 11.2022 12.9231 8.618 14.5044C8.42967 14.6107 8.2167 14.6666 8 14.6666C7.7833 14.6666 7.57033 14.6107 7.382 14.5044C4.8026 12.9076 2 10.609 2 7.28376C2 4.0219 4.75296 1.33325 8 1.33325Z" stroke="#9B1E1C" stroke-width="1.2"/>
</svg>
