<svg xmlns="http://www.w3.org/2000/svg" width="36" height="16" viewBox="0 0 36 16" fill="none">
  <g clip-path="url(#clip0_7111_1970)">
    <path d="M35.787 6.98246C35.4876 3.64949 33.0253 0.951671 29.6127 0.179197C26.9458 -0.424362 24.7327 0.56921 22.5918 2.01665C18.3188 4.90467 14.0355 7.77896 9.70143 10.5743C7.93607 11.7127 5.96815 11.2341 5.00617 9.58208C4.04075 7.92316 4.36072 6.39675 5.8013 5.1862C7.22334 3.99144 9.21804 4.34094 10.5542 5.93326C11.039 6.51073 11.4819 7.12322 11.9845 7.77072C13.2473 6.91585 14.3871 6.14475 15.5736 5.34207C14.9549 4.42746 14.5148 3.68588 13.9868 3.01229C11.8122 0.236876 8.18326 -0.728545 4.92858 0.568524C1.66634 1.86903 -0.251457 5.00149 0.0266336 8.57547C0.286185 11.9146 2.72789 14.6392 6.11372 15.4597C8.58907 16.0599 10.7293 15.3389 12.7577 13.9814C17.1082 11.07 21.4478 8.14151 25.8355 5.28576C27.8027 4.00517 29.658 4.33407 30.7848 5.97584C31.8196 7.48439 31.468 9.453 29.9684 10.542C28.3809 11.6949 26.5008 11.2815 25.0857 9.47222C24.6799 8.95312 24.2658 8.43951 23.8422 7.90668C22.565 8.7794 21.476 9.52372 20.2881 10.3353C20.8889 11.2204 21.3538 12.0307 21.9367 12.7434C24.1944 15.5037 27.7945 16.4046 31.0341 15.0684C34.2681 13.7349 36.1118 10.5976 35.787 6.98108V6.98246Z" fill="#9B1E1C"/>
    <path d="M15.7343 13.3796C16.1909 14.5201 17.3225 15.2452 18.5509 15.2452L22.1098 15.2253C21.9581 14.9904 21.9347 14.9231 21.8338 14.7728C20.8862 13.3555 20.0918 12.1676 19.2753 10.9468C17.9357 11.8531 16.8549 12.5844 15.7227 13.3507C15.7261 13.3603 15.7302 13.3699 15.7336 13.3789L15.7343 13.3796Z" fill="#9B1E1C"/>
    <path d="M20.0122 2.01405C19.5556 0.873532 18.424 0.148438 17.1956 0.148438L13.6367 0.16835C13.7885 0.403182 13.8118 0.470473 13.9127 0.620848C14.8603 2.03808 15.6548 3.22597 16.4712 4.44682C17.8108 3.54045 18.8916 2.80918 20.0239 2.04289C20.0204 2.03327 20.0163 2.02366 20.0129 2.01473L20.0122 2.01405Z" fill="#9B1E1C"/>
    <path d="M24.8789 3.8038C25.0181 3.8038 25.1309 3.69098 25.1309 3.5518C25.1309 3.41263 25.0181 3.2998 24.8789 3.2998C24.7398 3.2998 24.627 3.41263 24.627 3.5518C24.627 3.69098 24.7398 3.8038 24.8789 3.8038Z" fill="#9B1E1C"/>
  </g>
  <defs>
    <clipPath id="clip0_7111_1970">
      <rect width="35.8235" height="15.6795" fill="white"/>
    </clipPath>
  </defs>
</svg>

