<svg width="16" height="16" viewBox="0 0 16 16" fill="none" xmlns="http://www.w3.org/2000/svg">
<path d="M1.3335 4L5.94218 6.61131C7.64123 7.57401 8.3591 7.57401 10.0581 6.61131L14.6668 4" stroke="#9B1E1C" stroke-width="1.2" stroke-linejoin="round"/>
<path d="M1.34401 8.98367C1.38759 11.0274 1.40938 12.0492 2.16347 12.8062C2.91755 13.5631 3.96705 13.5895 6.06605 13.6422C7.3597 13.6747 8.64063 13.6747 9.93428 13.6422C12.0333 13.5895 13.0828 13.5631 13.8369 12.8062C14.5909 12.0492 14.6127 11.0274 14.6563 8.98366C14.6703 8.32654 14.6703 7.6733 14.6563 7.01618C14.6127 4.97249 14.5909 3.95065 13.8369 3.19369C13.0828 2.43674 12.0333 2.41037 9.93428 2.35763C8.64063 2.32513 7.3597 2.32513 6.06604 2.35763C3.96705 2.41036 2.91755 2.43673 2.16346 3.19368C1.40938 3.95064 1.38759 4.97248 1.34401 7.01617C1.32999 7.67329 1.32999 8.32654 1.34401 8.98367Z" stroke="#9B1E1C" stroke-width="1.2" stroke-linejoin="round"/>
</svg>
