<svg width="51" height="51" viewBox="0 0 51 51" fill="none" xmlns="http://www.w3.org/2000/svg">
<path d="M30.9335 41.303L30.9334 41.3029L25.3381 34.9413C22.5681 31.7919 22.2401 30.4079 22.4223 30.1095L24.5224 28.4182L33.0341 21.7605C33.7204 21.2236 33.8416 20.2321 33.3048 19.5458C32.768 18.8594 31.7764 18.7383 31.0901 19.2751L22.5694 25.9396L20.007 28.0311C19.4088 28.6731 19.0273 29.771 19.4434 31.3321C19.8317 32.7891 20.9208 34.7148 23.2397 37.3584L22.3832 39.0473C21.8301 39.8162 21.3165 40.5301 20.8438 41.0194C20.3742 41.5056 19.5208 42.2202 18.3322 41.9837C17.1593 41.7504 16.6329 40.7807 16.3723 40.1584C16.1076 39.5263 15.8834 38.6691 15.6402 37.7392L14.5853 33.7077C13.9993 31.4685 13.797 30.8249 13.4157 30.3511C13.3675 30.2913 13.3174 30.2335 13.2654 30.1779C12.8628 29.7469 12.2943 29.4816 10.2119 28.6468L10.0978 28.6011C8.04555 27.7786 6.35508 27.101 5.17269 26.4353C4.0272 25.7903 2.79021 24.8527 2.6479 23.2706C2.62578 23.0247 2.62616 22.7773 2.64903 22.5315C2.79621 20.9497 4.03627 20.0161 5.18377 19.3749C6.36824 18.7131 8.06082 18.0411 10.1156 17.2254L35.3252 7.21648C37.9038 6.1926 40.0124 5.35538 41.6692 4.97368C43.3583 4.58453 45.1033 4.54333 46.4706 5.8081C47.811 7.04792 47.9714 8.7945 47.8044 10.5548C47.6387 12.3012 47.0938 14.5725 46.4217 17.3742L41.3318 38.5932L41.3317 38.5934C40.9034 40.3793 40.5418 41.8869 40.1081 42.9809C39.67 44.086 38.9674 45.2727 37.5479 45.6481C36.1109 46.0281 34.9236 45.3197 34.0211 44.556C33.1347 43.8058 32.1238 42.6564 30.9335 41.303Z" fill="#101010"/>
</svg>
