<svg width="64" height="64" viewBox="0 0 64 64" fill="none" xmlns="http://www.w3.org/2000/svg">
<path d="M16.3821 55.056C21.596 54.5296 25.2354 46.1562 29.5194 43.5409C31.2072 42.5106 32.7031 43.557 33.7602 44.9329L43.9876 58.2452C45.7696 60.5647 47.0244 61.2549 49.7113 59.8793C53.8422 57.7645 57.7676 53.8336 59.8792 49.7105C61.255 47.0243 60.5649 45.7692 58.2457 43.9875L44.9332 33.7599C43.5573 32.7029 42.5109 31.2069 43.5413 29.5192C46.1565 25.2352 54.53 21.5958 55.0563 16.3819C55.9819 6.87837 11.499 -1.77554 4.86136 4.86123C-1.77544 11.4988 6.87851 55.9815 16.3821 55.056Z" fill="white" stroke="black" stroke-width="5.04861" stroke-linecap="round" stroke-linejoin="round"/>
</svg>
