<svg width="25" height="26" viewBox="0 0 25 26" fill="none" xmlns="http://www.w3.org/2000/svg">
<path d="M3.95331 11.1564H13.6356C14.9087 11.1564 15.9137 10.8661 16.6508 10.2853C17.4102 9.68229 17.7899 8.85589 17.7899 7.80614C17.7899 6.75639 17.4102 5.94115 16.6508 5.36044C15.9137 4.77973 14.9087 4.48937 13.6356 4.48937H3.11574L5.69545 1.57463V25.1271H0V0H14.3056C16.1371 0 17.7452 0.335028 19.13 1.00508C20.5148 1.6528 21.598 2.55738 22.3797 3.7188C23.1615 4.88023 23.5523 6.24268 23.5523 7.80614C23.5523 9.34727 23.1615 10.6985 22.3797 11.86C21.598 13.0214 20.5148 13.9371 19.13 14.6072C17.7452 15.2549 16.1371 15.5788 14.3056 15.5788H3.95331V11.1564ZM8.30864 13.3676H14.8082L24.2894 25.1271H17.6224L8.30864 13.3676Z" fill="#101010"/>
</svg>
