<svg width="29" height="27" viewBox="0 0 29 27" fill="none" xmlns="http://www.w3.org/2000/svg">
<path d="M28.4102 15.4113C28.1645 17.5331 27.4163 19.4093 26.1655 21.0397C24.9371 22.6479 23.3067 23.8986 21.2742 24.792C19.264 25.6854 16.9635 26.1321 14.3726 26.1321C11.5137 26.1321 9.00104 25.5849 6.83453 24.4905C4.69037 23.3961 3.01524 21.8773 1.80914 19.9341C0.603047 17.9686 0 15.6793 0 13.0661C0 10.4529 0.603047 8.17467 1.80914 6.23151C3.01524 4.26602 4.69037 2.73606 6.83453 1.64164C9.00104 0.547212 11.5137 0 14.3726 0C16.9635 0 19.264 0.446704 21.2742 1.34011C23.3067 2.23352 24.9371 3.48429 26.1655 5.09242C27.4163 6.70055 28.1645 8.5767 28.4102 10.7209H22.6813C22.4579 9.53712 21.9777 8.52087 21.2407 7.67213C20.5036 6.80106 19.5544 6.131 18.3929 5.66197C17.2315 5.19293 15.8802 4.95841 14.3391 4.95841C12.5746 4.95841 11.0447 5.29344 9.74926 5.96349C8.47616 6.61121 7.49342 7.54929 6.80103 8.77772C6.10864 9.98382 5.76245 11.4133 5.76245 13.0661C5.76245 14.7189 6.10864 16.1595 6.80103 17.3879C7.49342 18.594 8.47616 19.5321 9.74926 20.2022C11.0447 20.8499 12.5746 21.1737 14.3391 21.1737C15.8802 21.1737 17.2315 20.9504 18.3929 20.5037C19.5544 20.0346 20.5036 19.3758 21.2407 18.527C21.9777 17.656 22.4579 16.6174 22.6813 15.4113H28.4102Z" fill="#101010"/>
</svg>
