<svg width="8" height="5" viewBox="0 0 8 5" fill="none" xmlns="http://www.w3.org/2000/svg">
<path d="M7.24414 3.8761C7.24413 3.85898 7.24118 3.852 7.24023 3.84973C7.23924 3.84735 7.23564 3.8383 7.2207 3.82336L3.9248 0.527466C3.90895 0.511612 3.89886 0.505049 3.89551 0.503052C3.89294 0.50198 3.88747 0.500122 3.87598 0.500122L3.85742 0.503052C3.85432 0.504868 3.84431 0.511294 3.82812 0.527466L0.515625 3.83997C0.507791 3.8478 0.502916 3.85372 0.500977 3.85657C0.500095 3.85789 0.500215 3.85909 0.5 3.8595L0.5 3.86633C0.500675 3.8846 0.502897 3.8995 0.532227 3.92883C0.546242 3.94282 0.554701 3.94709 0.557617 3.94836C0.559826 3.94929 0.567645 3.95227 0.584961 3.95227C0.602043 3.95224 0.609133 3.94928 0.611328 3.94836C0.613951 3.94725 0.623118 3.94341 0.637695 3.92883L3.52246 1.04309L3.87598 0.689575L7.13184 3.94543C7.13967 3.95327 7.14558 3.95717 7.14844 3.95911L7.15137 3.96106C7.1527 3.96116 7.15505 3.96117 7.1582 3.96106C7.17645 3.96038 7.19141 3.95813 7.2207 3.92883C7.23561 3.91392 7.23924 3.90485 7.24023 3.90247C7.24123 3.90007 7.24414 3.89297 7.24414 3.8761Z" fill="#9B1E1C" stroke="#9B1E1C"/>
</svg>
