<svg width="20" height="20" viewBox="0 0 20 20" fill="none" xmlns="http://www.w3.org/2000/svg">
<path d="M9.15898 3.31267C9.73138 2.87301 10.4124 2.51599 11.1385 2.82308C11.8579 3.12733 12.089 3.86023 12.1888 4.58122C12.2912 5.32017 12.2912 6.33765 12.2911 7.60272V12.3992C12.2912 13.6643 12.2912 14.6818 12.1888 15.4207C12.089 16.1417 11.8579 16.8746 11.1385 17.1788C10.4124 17.4859 9.73138 17.1289 9.15898 16.6892C8.57366 16.2397 7.82986 15.4801 6.95492 14.5867L6.95488 14.5867C6.50532 14.1276 6.20703 13.9058 5.90487 13.7809C5.60119 13.6553 5.23197 13.6021 4.58784 13.6021C4.03075 13.6021 3.53237 13.6021 3.15501 13.5629C2.75922 13.5218 2.39175 13.4323 2.06119 13.2067C1.43135 12.777 1.19032 12.1478 1.09899 11.5695C1.03089 11.1382 1.03871 10.6648 1.045 10.2834V9.71852C1.03871 9.33713 1.03089 8.86367 1.09899 8.43245C1.19032 7.85414 1.43135 7.22492 2.06119 6.79519C2.39175 6.56966 2.75922 6.48015 3.15501 6.43903C3.53237 6.39984 4.03075 6.39985 4.58784 6.39986C5.23197 6.39986 5.60119 6.34658 5.90487 6.22104C6.20703 6.09612 6.50533 5.87429 6.95488 5.41525C7.82983 4.5218 8.57365 3.76227 9.15898 3.31267Z" fill="white"/>
<path fill-rule="evenodd" clip-rule="evenodd" d="M13.6619 6.83737C14.0278 6.55819 14.5507 6.6285 14.8299 6.99439C15.4606 7.821 15.834 8.86798 15.834 9.99988C15.834 11.1318 15.4606 12.1788 14.8299 13.0054C14.5507 13.3713 14.0278 13.4416 13.6619 13.1624C13.296 12.8832 13.2257 12.3603 13.5048 11.9944C13.9165 11.4549 14.1674 10.7622 14.1674 9.99988C14.1674 9.23751 13.9165 8.54489 13.5048 8.00537C13.2257 7.63947 13.296 7.11654 13.6619 6.83737Z" fill="white"/>
<path fill-rule="evenodd" clip-rule="evenodd" d="M16.1046 5.21871C16.444 4.90792 16.9712 4.93115 17.2819 5.2706C18.4513 6.54775 19.1673 8.19373 19.1673 10C19.1673 11.8063 18.4513 13.4523 17.2819 14.7294C16.9712 15.0689 16.444 15.0921 16.1046 14.7813C15.7651 14.4705 15.7419 13.9434 16.0527 13.6039C16.968 12.6042 17.5007 11.3508 17.5007 10C17.5007 8.64918 16.968 7.39581 16.0527 6.39608C15.7419 6.05663 15.7651 5.5295 16.1046 5.21871Z" fill="white"/>
</svg>
