<svg width="50" height="50" viewBox="0 0 50 50" fill="none" xmlns="http://www.w3.org/2000/svg">
<path d="M39.0625 15.0498C40.5808 15.0855 42.1438 15.1045 43.75 15.1045H45.3125V47.3955H43.5488C29.1221 47.3956 17.3103 47.3959 5.50195 40.9551L4.6875 40.5107V11.8525C7.87874 9.34323 10.1008 7.97735 12.6748 6.89355C17.8273 4.72408 25.8476 2.60449 37.5 2.60449H39.0625V15.0498ZM34.375 27.083C32.0738 27.083 30.208 28.9488 30.208 31.25C30.208 33.5512 32.0738 35.417 34.375 35.417C36.6762 35.417 38.542 33.5512 38.542 31.25C38.542 28.9488 36.6762 27.083 34.375 27.083ZM34.958 7.07031C25.0493 7.3027 18.2631 9.19588 13.9492 11.0312C13.0364 11.4196 12.232 11.8061 11.5312 12.1748C16.5976 13.2239 24.5766 14.443 34.958 14.9092V7.07031Z" fill="#9B1E1C"/>
</svg>
