<svg width="40" height="40" viewBox="0 0 40 40" fill="none" xmlns="http://www.w3.org/2000/svg">
<path d="M31.25 12.04C32.4647 12.0686 33.715 12.083 35 12.083H36.25V37.917H34.8398C23.2983 37.9171 13.8482 37.9165 4.40137 32.7637L3.75 32.4092V9.48242C6.303 7.47496 8.08049 6.38169 10.1396 5.51465C14.2616 3.77907 20.6781 2.08301 30 2.08301H31.25V12.04ZM27.5 21.667C25.6591 21.667 24.167 23.1591 24.167 25C24.167 26.841 25.6591 28.333 27.5 28.333C29.3409 28.333 30.833 26.8409 30.833 25C30.833 23.1591 29.3409 21.667 27.5 21.667ZM27.9668 5.65625C20.0396 5.84217 14.6103 7.35686 11.1592 8.8252C10.429 9.13587 9.78616 9.44531 9.22559 9.74023C13.2787 10.5795 19.6619 11.5548 27.9668 11.9277V5.65625Z" fill="#9B1E1C"/>
</svg>
