<svg width="20" height="20" viewBox="0 0 20 20" fill="none" xmlns="http://www.w3.org/2000/svg">
<path d="M10 18.9585C14.9474 18.9583 18.958 14.947 18.958 9.99951C18.9578 5.0522 14.9473 1.04167 10 1.0415C5.05255 1.0415 1.04118 5.0521 1.04102 9.99951C1.04102 11.2336 1.2916 12.4114 1.74414 13.4829C1.86278 13.7638 1.94266 13.9542 1.99609 14.1001C2.05007 14.2475 2.05852 14.3016 2.05957 14.3159C2.06499 14.3942 2.04431 14.5013 1.90918 15.0063L1.0625 18.1714C1.00481 18.387 1.06678 18.6171 1.22461 18.7749C1.38244 18.9327 1.6125 18.9947 1.82812 18.937L4.99316 18.0903C5.49819 17.9552 5.60534 17.9345 5.68359 17.9399C5.69798 17.941 5.75202 17.9495 5.89941 18.0034C6.04532 18.0569 6.23569 18.1367 6.5166 18.2554C7.58808 18.7079 8.76592 18.9585 10 18.9585ZM13.3467 14.7544C12.9581 14.8358 12.662 14.7686 12.3457 14.6968L12.3018 14.686C10.6983 14.3239 9.12552 13.4776 7.82324 12.1753C6.52108 10.873 5.67457 9.30022 5.3125 7.69678L5.30273 7.65381C5.23095 7.33749 5.16375 7.04145 5.24512 6.65283C5.30446 6.36939 5.45496 6.10605 5.61816 5.90186C5.78136 5.69771 6.00519 5.49292 6.26855 5.37256C6.63106 5.20697 6.99987 5.20782 7.39941 5.2085H7.47754C7.6612 5.20851 7.97028 5.21356 8.25586 5.33252C8.59733 5.47482 8.87916 5.76849 8.95117 6.22803V6.23291C9.04043 6.80245 9.10881 7.23529 9.15332 7.5415C9.17559 7.69471 9.1928 7.82189 9.2041 7.92139C9.21338 8.00305 9.22517 8.11542 9.21973 8.20947C9.19585 8.61744 9.02965 8.94253 8.85742 9.19385C8.74785 9.35369 8.60168 9.52798 8.48633 9.66455C8.44104 9.71817 8.40062 9.76608 8.36914 9.80518C8.16121 10.0634 8.05727 10.1925 8.04785 10.3521C8.04631 10.3784 8.04692 10.4099 8.0498 10.436C8.06733 10.5949 8.16912 10.7095 8.37305 10.938C8.48015 11.058 8.59145 11.1759 8.70703 11.2915C8.82279 11.4073 8.94136 11.5192 9.06152 11.6265C9.28989 11.8303 9.40461 11.9322 9.56348 11.9497C9.58965 11.9526 9.62122 11.9532 9.64746 11.9517C9.807 11.9422 9.93614 11.8383 10.1943 11.6304C10.2334 11.5989 10.2813 11.5585 10.335 11.5132C10.4716 11.3978 10.6457 11.2507 10.8057 11.1411C11.0569 10.969 11.3813 10.8037 11.7891 10.7798C11.8832 10.7743 11.9963 10.7861 12.0781 10.7954C12.1776 10.8067 12.305 10.8239 12.458 10.8462C12.7642 10.8907 13.1972 10.9581 13.7666 11.0474L13.7715 11.0483C14.2309 11.1204 14.5237 11.4022 14.666 11.7437C14.785 12.0294 14.791 12.3384 14.791 12.522V12.5991C14.7917 12.9987 14.7924 13.3675 14.627 13.73C14.5066 13.9934 14.3019 14.2181 14.0977 14.3813C13.8935 14.5445 13.63 14.695 13.3467 14.7544Z" fill="#9B1E1C"/>
</svg>
