<svg width="32" height="14" viewBox="0 0 32 14" fill="none" xmlns="http://www.w3.org/2000/svg">
<g clip-path="url(#clip0_7100_14535)">
<path d="M31.2944 6.10609C31.0326 3.19136 28.8792 0.832068 25.8948 0.156528C23.5626 -0.371295 21.6272 0.497601 19.7549 1.76341C16.0181 4.28903 12.2723 6.80265 8.48211 9.2472C6.93827 10.2428 5.2173 9.82426 4.37602 8.37951C3.53175 6.92875 3.81157 5.59388 5.07138 4.53523C6.31498 3.4904 8.05937 3.79604 9.22791 5.18855C9.65185 5.69356 10.0392 6.22919 10.4787 6.79544C11.583 6.04784 12.5798 5.3735 13.6174 4.67154C13.0764 3.8717 12.6915 3.22318 12.2297 2.63411C10.328 0.206968 7.15445 -0.637308 4.30817 0.497C1.45529 1.63431 -0.221856 4.3737 0.0213384 7.4992C0.24832 10.4193 2.38363 12.802 5.3446 13.5196C7.50933 14.0444 9.38103 13.4139 11.1548 12.2268C14.9595 9.68075 18.7545 7.1197 22.5916 4.6223C24.312 3.50241 25.9345 3.79004 26.9199 5.22578C27.8248 6.54504 27.5173 8.26662 26.2059 9.21898C24.8176 10.2272 23.1735 9.8657 21.9359 8.28343C21.581 7.82947 21.2189 7.38031 20.8484 6.91434C19.7315 7.67755 18.7792 8.32847 17.7403 9.03824C18.2657 9.81226 18.6723 10.5208 19.1821 11.1441C21.1565 13.5581 24.3048 14.3459 27.1378 13.1773C29.9661 12.0112 31.5784 9.26762 31.2944 6.10489V6.10609Z" fill="#9B1E1C"/>
<path d="M13.7583 11.7005C14.1576 12.6979 15.1472 13.332 16.2214 13.332L19.3337 13.3146C19.201 13.1092 19.1806 13.0504 19.0923 12.9189C18.2637 11.6795 17.5689 10.6407 16.8549 9.573C15.6834 10.3656 14.7382 11.0051 13.748 11.6753C13.751 11.6837 13.7547 11.6921 13.7577 11.6999L13.7583 11.7005Z" fill="#9B1E1C"/>
<path d="M17.4993 1.76114C17.1 0.763746 16.1104 0.129639 15.0361 0.129639L11.9238 0.147053C12.0565 0.352417 12.077 0.411264 12.1652 0.542769C12.9939 1.78216 13.6886 2.82099 14.4026 3.88865C15.5741 3.09601 16.5193 2.4565 17.5095 1.78636C17.5065 1.77796 17.5029 1.76955 17.4999 1.76174L17.4993 1.76114Z" fill="#9B1E1C"/>
<path d="M21.7555 3.32625C21.8772 3.32625 21.9759 3.22758 21.9759 3.10587C21.9759 2.98416 21.8772 2.8855 21.7555 2.8855C21.6338 2.8855 21.5352 2.98416 21.5352 3.10587C21.5352 3.22758 21.6338 3.32625 21.7555 3.32625Z" fill="#9B1E1C"/>
</g>
<defs>
<clipPath id="clip0_7100_14535">
<rect width="31.3283" height="13.712" fill="white"/>
</clipPath>
</defs>
</svg>
