<svg width="91" height="40" viewBox="0 0 91 40" fill="none" xmlns="http://www.w3.org/2000/svg">
<g clip-path="url(#clip0_7100_2700)">
<path d="M90.3373 17.6254C89.5816 9.21195 83.366 2.40183 74.7515 0.451872C68.0194 -1.0717 62.433 1.43638 57.0285 5.09017C46.2422 12.3804 35.4299 19.636 24.4894 26.6922C20.0331 29.5661 15.0654 28.3579 12.6371 24.1876C10.2001 20 11.0078 16.1469 14.6443 13.0911C18.2339 10.0751 23.2691 10.9574 26.6421 14.9769C27.8658 16.4346 28.9838 17.9807 30.2526 19.6152C33.4401 17.4572 36.3174 15.5108 39.3125 13.4845C37.7508 11.1758 36.6398 9.30382 35.3069 7.60345C29.8175 0.59747 20.6571 -1.83955 12.4412 1.43465C4.20634 4.71751 -0.634754 12.6248 0.0672314 21.6466C0.722417 30.0756 6.88602 36.9534 15.4329 39.0247C21.6814 40.5396 27.0841 38.7196 32.2043 35.2929C43.1864 27.9437 54.1409 20.5512 65.2166 13.3424C70.1825 10.1098 74.8659 10.9401 77.7102 15.0844C80.3223 18.8924 79.4349 23.8618 75.6494 26.6108C71.642 29.521 66.8962 28.4775 63.3239 23.9103C62.2995 22.5999 61.2543 21.3034 60.1849 19.9584C56.961 22.1614 54.2119 24.0403 51.2133 26.0891C52.73 28.3233 53.9034 30.3686 55.375 32.1677C61.0741 39.1356 70.1617 41.4097 78.3394 38.0367C86.5033 34.6706 91.1572 26.7512 90.3373 17.6219V17.6254Z" fill="#9B1E1C"/>
<path d="M39.7199 33.7741C40.8725 36.6531 43.729 38.4835 46.8299 38.4835L55.8136 38.4332C55.4305 37.8404 55.3716 37.6706 55.1168 37.291C52.7248 33.7135 50.7194 30.7149 48.6585 27.6331C45.2768 29.921 42.5486 31.767 39.6904 33.7013C39.6991 33.7256 39.7095 33.7499 39.7182 33.7724L39.7199 33.7741Z" fill="#9B1E1C"/>
<path d="M50.516 5.08363C49.3634 2.20463 46.5069 0.374268 43.406 0.374268L34.4224 0.424533C34.8054 1.01732 34.8644 1.18718 35.1191 1.56678C37.5111 5.1443 39.5165 8.1429 41.5774 11.2247C44.9591 8.93675 47.6873 7.09079 50.5455 5.15643C50.5368 5.13217 50.5264 5.1079 50.5178 5.08537L50.516 5.08363Z" fill="#9B1E1C"/>
<path d="M62.7997 9.60134C63.151 9.60134 63.4358 9.31654 63.4358 8.96522C63.4358 8.6139 63.151 8.3291 62.7997 8.3291C62.4484 8.3291 62.1636 8.6139 62.1636 8.96522C62.1636 9.31654 62.4484 9.60134 62.7997 9.60134Z" fill="#9B1E1C"/>
</g>
<defs>
<clipPath id="clip0_7100_2700">
<rect width="90.4295" height="39.5798" fill="white"/>
</clipPath>
</defs>
</svg>
