<svg width="29" height="13" viewBox="0 0 29 13" fill="none" xmlns="http://www.w3.org/2000/svg">
<g clip-path="url(#clip0_0_9503)">
<path d="M28.9704 5.65231C28.7281 2.9542 26.7348 0.770246 23.9722 0.14491C21.8132 -0.343685 20.0217 0.460635 18.2886 1.63238C14.8295 3.9703 11.3621 6.2971 7.85354 8.55998C6.42444 9.48159 4.83136 9.09416 4.05261 7.75677C3.27108 6.41383 3.53011 5.17817 4.69629 4.1982C5.84746 3.23101 7.46222 3.51394 8.54391 4.80297C8.93634 5.27044 9.29487 5.76626 9.70175 6.29043C10.724 5.59839 11.6467 4.97417 12.6072 4.32437C12.1064 3.58398 11.7501 2.98366 11.3226 2.43836C9.56223 0.191602 6.62455 -0.589928 3.9898 0.46008C1.34894 1.51287 -0.20356 4.04867 0.0215605 6.94189C0.231673 9.64501 2.20829 11.8506 4.9492 12.5149C6.95306 13.0007 8.68565 12.4171 10.3276 11.3181C13.8495 8.96131 17.3625 6.59059 20.9144 4.27879C22.507 3.24213 24.0089 3.50838 24.921 4.83743C25.7587 6.05864 25.4741 7.65227 24.2601 8.53386C22.975 9.46713 21.4531 9.13251 20.3074 7.66784C19.9789 7.24761 19.6438 6.83183 19.3008 6.40049C18.2669 7.10698 17.3853 7.70952 16.4237 8.36654C16.9101 9.08304 17.2864 9.73895 17.7583 10.3159C19.5859 12.5505 22.5003 13.2797 25.1228 12.198C27.7409 11.1186 29.2333 8.57888 28.9704 5.6512V5.65231Z" fill="#F1F0EE"/>
<path d="M12.738 10.831C13.1076 11.7543 14.0237 12.3412 15.0181 12.3412L17.8991 12.3251C17.7762 12.135 17.7573 12.0806 17.6756 11.9588C16.9085 10.8115 16.2654 9.84991 15.6045 8.8616C14.52 9.59533 13.6451 10.1873 12.7285 10.8076C12.7313 10.8154 12.7346 10.8232 12.7374 10.8304L12.738 10.831Z" fill="#F1F0EE"/>
<path d="M16.2002 1.63031C15.8305 0.707038 14.9145 0.120056 13.9201 0.120056L11.0391 0.136176C11.1619 0.326278 11.1808 0.380752 11.2625 0.502484C12.0296 1.64977 12.6727 2.61139 13.3336 3.5997C14.4181 2.86597 15.293 2.27399 16.2096 1.65366C16.2068 1.64587 16.2035 1.63809 16.2007 1.63087L16.2002 1.63031Z" fill="#F1F0EE"/>
<path d="M20.1395 3.07899C20.2522 3.07899 20.3435 2.98765 20.3435 2.87499C20.3435 2.76232 20.2522 2.67099 20.1395 2.67099C20.0269 2.67099 19.9355 2.76232 19.9355 2.87499C19.9355 2.98765 20.0269 3.07899 20.1395 3.07899Z" fill="#F1F0EE"/>
</g>
<defs>
<clipPath id="clip0_0_9503">
<rect width="29" height="12.6929" fill="white"/>
</clipPath>
</defs>
</svg>
