<svg width="35" height="15" viewBox="0 0 35 15" fill="none" xmlns="http://www.w3.org/2000/svg">
<g clip-path="url(#clip0_0_9449)">
<path d="M34.0828 6.64954C33.7977 3.47528 31.4527 0.905933 28.2026 0.170244C25.6626 -0.404574 23.555 0.541685 21.516 1.9202C17.4465 4.6707 13.3672 7.40811 9.23946 10.0703C7.55816 11.1546 5.68396 10.6988 4.76778 9.12537C3.84833 7.54544 4.15307 6.09172 5.52505 4.93882C6.87937 3.80095 8.77908 4.13381 10.0517 5.65031C10.5133 6.20028 10.9351 6.7836 11.4138 7.40027C12.6164 6.5861 13.702 5.85172 14.832 5.08726C14.2428 4.21621 13.8236 3.50994 13.3207 2.86842C11.2497 0.225176 7.79358 -0.694272 4.69388 0.541031C1.58699 1.7796 -0.239483 4.7629 0.0253653 8.16669C0.272557 11.3468 2.59799 13.9417 5.82259 14.7231C8.18007 15.2947 10.2184 14.6081 12.1502 13.3152C16.2936 10.5425 20.4265 7.7534 24.6052 5.03364C26.4788 3.81403 28.2457 4.12727 29.3189 5.69085C30.3043 7.12757 29.9695 9.00243 28.5413 10.0396C27.0294 11.1376 25.2389 10.7439 23.8911 9.02074C23.5046 8.52636 23.1103 8.03721 22.7068 7.52975C21.4905 8.36091 20.4533 9.06979 19.322 9.84275C19.8942 10.6857 20.3369 11.4573 20.8921 12.1361C23.0423 14.765 26.4709 15.623 29.5562 14.3504C32.6363 13.0804 34.3922 10.0926 34.0828 6.64823V6.64954Z" fill="#F1F0EE"/>
<path d="M14.9857 12.7423C15.4206 13.8285 16.4983 14.5191 17.6682 14.5191L21.0576 14.5001C20.9131 14.2764 20.8909 14.2124 20.7947 14.0691C19.8923 12.7194 19.1357 11.5881 18.3581 10.4254C17.0823 11.2886 16.053 11.985 14.9746 12.7148C14.9779 12.724 14.9818 12.7331 14.9851 12.7416L14.9857 12.7423Z" fill="#F1F0EE"/>
<path d="M19.0582 1.9177C18.6233 0.831497 17.5456 0.14093 16.3757 0.14093L12.9863 0.159895C13.1309 0.383544 13.1531 0.447631 13.2492 0.590845C14.1517 1.94059 14.9083 3.07191 15.6858 4.23463C16.9617 3.37142 17.991 2.67497 19.0693 1.94517C19.0661 1.93601 19.0621 1.92686 19.0589 1.91835L19.0582 1.9177Z" fill="#F1F0EE"/>
<path d="M23.6931 3.62221C23.8257 3.62221 23.9331 3.51476 23.9331 3.38221C23.9331 3.24966 23.8257 3.14221 23.6931 3.14221C23.5606 3.14221 23.4531 3.24966 23.4531 3.38221C23.4531 3.51476 23.5606 3.62221 23.6931 3.62221Z" fill="#F1F0EE"/>
</g>
<defs>
<clipPath id="clip0_0_9449">
<rect width="34.1176" height="14.9328" fill="white"/>
</clipPath>
</defs>
</svg>
